<svg xmlns="http://www.w3.org/2000/svg" xmlns:xlink="http://www.w3.org/1999/xlink" viewBox="0 0 1440 732" width="1440" height="732" preserveAspectRatio="xMidYMid meet" style="width: 100%; height: 100%; transform: translate3d(0px, 0px, 0px); content-visibility: visible;"><defs><clipPath id="__lottie_element_3049"><rect width="1440" height="732" x="0" y="0"></rect></clipPath></defs><g clip-path="url(#__lottie_element_3049)"><g transform="matrix(1,0,0,1,720,396)" opacity="1" style="display: block;"><g opacity="1" transform="matrix(1,0,0,1,0,0)"><path fill="rgb(255,206,0)" fill-opacity="1" d=" M216.64999389648438,-355.7980041503906 C212.5959930419922,-259.2019958496094 208.53700256347656,-162.6060028076172 204.48899841308594,-66.00900268554688 C-113.23799896240234,-108.85399627685547 -456.0679931640625,-40.07600021362305 -713.2940063476562,156.98199462890625 C-807.7860107421875,229.37100219726562 -905.0430297851562,297.2879943847656 -1002.802978515625,365.5 C-1005.72900390625,234.4429931640625 -1026.572021484375,91.73899841308594 -1011.8170166015625,-38.21900177001953 C-1010.4639892578125,-50.1349983215332 -1014.22900390625,-57.80400085449219 -1008.135009765625,-65.96700286865234 C-995.031005859375,-83.52200317382812 -943.4860229492188,-96.45500183105469 -923.8159790039062,-105.73100280761719 C-855.2100219726562,-138.0850067138672 -786.7109985351562,-170.67599487304688 -717.9959716796875,-202.7969970703125 C-505.7869873046875,-301.9960021972656 -276.4119873046875,-356.4010009765625 -42.37200164794922,-364.81298828125 C44.02399826049805,-367.9179992675781 130.6840057373047,-364.97900390625 216.64999389648438,-355.7980041503906z"></path></g><g opacity="1" transform="matrix(1,0,0,1,0,0)"><path fill="rgb(255,183,0)" fill-opacity="1" d=" M-297.38800048828125,-39.189998626708984 C-199.8419952392578,-63.56399917602539 -96.07099914550781,-77.14299774169922 11.670000076293945,-78.08999633789062 C77.94599914550781,-78.66899871826172 142.85000610351562,-74.44400024414062 205.86000061035156,-65.82499694824219 C211.79600524902344,-106.88600158691406 227.71099853515625,-210.50100708007812 250.19400024414062,-351.9119873046875 C171.25100708007812,-361.8169860839844 90.1969985961914,-366.6499938964844 7.538000106811523,-365.9289855957031 C-29.597000122070312,-365.60400390625 -66.37100219726562,-364.1629943847656 -102.74700164794922,-361.64801025390625 C-205.9949951171875,-333.88299560546875 -345.9630126953125,-265.9460144042969 -358.64801025390625,-165.5540008544922 C-360.0190124511719,-154.71600341796875 -365.0889892578125,-102.44999694824219 -322.4880065917969,-59.805999755859375 C-314.6919860839844,-52.00600051879883 -306.3559875488281,-45.180999755859375 -297.38800048828125,-39.189998626708984z"></path></g><g opacity="1" transform="matrix(1,0,0,1,0,0)"><path fill="rgb(12,147,244)" fill-opacity="1" d=" M250.17599487304688,-351.9129943847656 C392.69000244140625,-328.4620056152344 641.969970703125,-267.28900146484375 806.8200073242188,-181.91600036621094 C806.8200073242188,-181.91600036621094 962.97998046875,-100 962.97998046875,-100 C935.3400268554688,-26.920000076293945 1015.3099975585938,104.48200225830078 993.030029296875,178.88999938964844 C985.25,204.83200073242188 937.9600219726562,233.83700561523438 938.0499877929688,260.5 C938.0499877929688,260.5 701.8200073242188,115.43299865722656 701.8200073242188,115.43299865722656 C562.6099853515625,23.70199966430664 390.2229919433594,-39.5260009765625 205.86000061035156,-65.82499694824219 C21.496999740600586,-92.1240005493164 107.66200256347656,-375.364013671875 250.17599487304688,-351.9129943847656z"></path></g></g><g transform="matrix(0.9700000286102295,0,0,0.9700000286102295,706.3557739257812,114.48477172851562)" opacity="1" style="display: block;"><g opacity="1" transform="matrix(1,0,0,1,0,0)"><path fill="rgb(255,126,29)" fill-opacity="1" d=" M-121.24099731445312,60.07899856567383 C-121.24099731445312,-18.344999313354492 -57.665000915527344,-81.9209976196289 20.759000778198242,-81.9209976196289 C99.18299865722656,-81.9209976196289 162.75900268554688,-18.344999313354492 162.75900268554688,60.07899856567383 C162.75900268554688,138.5030059814453 99.18299865722656,202.07899475097656 20.759000778198242,202.07899475097656 C-57.665000915527344,202.07899475097656 -121.24099731445312,138.5030059814453 -121.24099731445312,60.07899856567383z"></path></g><g opacity="1" transform="matrix(1,0,0,1,0,0)"><path fill="rgb(222,109,23)" fill-opacity="1" d=" M-72.00800323486328,60.07899856567383 C-72.00800323486328,-9.949000358581543 -21.31399917602539,-68.13200378417969 45.375999450683594,-79.78900146484375 C37.380001068115234,-81.18699645996094 29.155000686645508,-81.9209976196289 20.759000778198242,-81.9209976196289 C-57.665000915527344,-81.9209976196289 -121.24099731445312,-18.344999313354492 -121.24099731445312,60.07899856567383 C-121.24099731445312,138.5030059814453 -57.665000915527344,202.07899475097656 20.759000778198242,202.07899475097656 C29.155000686645508,202.07899475097656 37.380001068115234,201.34500122070312 45.375999450683594,199.94700622558594 C-21.31399917602539,188.2899932861328 -72.00800323486328,130.10699462890625 -72.00800323486328,60.07899856567383z"></path></g><g opacity="1" transform="matrix(0.9563047289848328,-0.2923716902732849,0.2923716902732849,0.9563047289848328,-16.646175384521484,8.465827941894531)"><g opacity="1" transform="matrix(1,0,0,1,0,0)"><path stroke-linecap="round" stroke-linejoin="round" fill-opacity="0" stroke="rgb(65,61,69)" stroke-opacity="1" stroke-width="8" d=" M5.03000020980835,-16.836999893188477 C7.50600004196167,-10.571000099182129 13.61299991607666,-6.136000156402588 20.759000778198242,-6.136000156402588 C27.905000686645508,-6.136000156402588 34.012001037597656,-10.571000099182129 36.487998962402344,-16.836999893188477"></path></g><g opacity="1" transform="matrix(1,0,0,1,0,0)"><path stroke-linecap="round" stroke-linejoin="round" fill-opacity="0" stroke="rgb(65,61,69)" stroke-opacity="1" stroke-width="8" d=" M28.37700080871582,-44.970001220703125 C31.663999557495117,-36.652000427246094 39.77000045776367,-30.766000747680664 49.25600051879883,-30.766000747680664 C58.742000579833984,-30.766000747680664 66.8479995727539,-36.652000427246094 70.13500213623047,-44.970001220703125"></path></g><g opacity="1" transform="matrix(1,0,0,1,0,0)"><path stroke-linecap="round" stroke-linejoin="round" fill-opacity="0" stroke="rgb(65,61,69)" stroke-opacity="1" stroke-width="8" d=" M-28.617000579833984,-44.970001220703125 C-25.329999923706055,-36.652000427246094 -17.224000930786133,-30.766000747680664 -7.73799991607666,-30.766000747680664 C1.7480000257492065,-30.766000747680664 9.854999542236328,-36.652000427246094 13.142000198364258,-44.970001220703125"></path></g></g></g></g></svg>