<svg width="56" height="44" viewBox="0 0 56 44" fill="none" xmlns="http://www.w3.org/2000/svg">
<g clip-path="url(#clip0)">
<path d="M47.1239 19.25C44.0661 19.25 41.5799 16.7836 41.5799 13.75C41.5799 10.7164 44.0661 8.25 47.1239 8.25C50.1818 8.25 52.6679 10.7164 52.6679 13.75C52.6679 16.7836 50.1818 19.25 47.1239 19.25ZM8.31594 19.25C5.25808 19.25 2.77195 16.7836 2.77195 13.75C2.77195 10.7164 5.25808 8.25 8.31594 8.25C11.3738 8.25 13.8599 10.7164 13.8599 13.75C13.8599 16.7836 11.3738 19.25 8.31594 19.25ZM5.54395 22H11.0879C12.6125 22 13.9899 22.6102 14.9947 23.5984C11.5037 25.4977 9.02627 28.9266 8.48919 33H2.77195C1.23868 33 -5.34058e-05 31.7711 -5.34058e-05 30.25V27.5C-5.34058e-05 24.4664 2.48608 22 5.54395 22ZM27.7199 22C22.3579 22 18.0179 17.6945 18.0179 12.375C18.0179 7.05547 22.3579 2.75 27.7199 2.75C33.082 2.75 37.4219 7.05547 37.4219 12.375C37.4219 17.6945 33.082 22 27.7199 22ZM21.0671 24.75H21.7861C23.5879 25.6094 25.589 26.125 27.7199 26.125C29.8509 26.125 31.8433 25.6094 33.6538 24.75H34.3727C39.8821 24.75 44.3519 29.1844 44.3519 34.65V37.125C44.3519 39.4023 42.4895 41.25 40.1939 41.25H15.2459C12.9504 41.25 11.0879 39.4023 11.0879 37.125V34.65C11.0879 29.1844 15.5578 24.75 21.0671 24.75ZM40.4452 23.5984C41.45 22.6102 42.8273 22 44.3519 22H49.8959C52.9538 22 55.4399 24.4664 55.4399 27.5V30.25C55.4399 31.7711 54.2012 33 52.6679 33H46.9594C46.4136 28.9266 43.9361 25.4977 40.4452 23.5984Z" fill="#FF7E1D"/>
</g>
<defs>
<clipPath id="clip0">
<rect width="55.44" height="44" rx="12" transform="matrix(-1 0 0 1 55.4399 0)" fill="white"/>
</clipPath>
</defs>
</svg>
