<svg width="1em" height="1em" fill="none" viewBox="0 0 24 24" aria-hidden="true" class="css-zjik7" xmlns="http://www.w3.org/2000/svg"><path fill="currentColor" fill-rule="evenodd" d="M7.671 1.564c1.12-.05 1.478-.063 4.33-.063 2.85 0 3.208.012 4.328.063 1.117.051 1.88.229 2.548.488.7.264 1.336.677 1.86 1.211.534.525.947 1.16 1.211 1.86.26.668.437 1.43.488 2.548.051 1.12.063 1.478.063 4.329s-.012 3.209-.063 4.329c-.051 1.117-.229 1.88-.488 2.548a5.368 5.368 0 01-3.07 3.07c-.668.26-1.431.438-2.55.489-1.119.05-1.476.063-4.328.063-2.851 0-3.209-.012-4.328-.063-1.118-.051-1.881-.229-2.55-.488a5.144 5.144 0 01-1.859-1.211 5.145 5.145 0 01-1.21-1.86c-.26-.668-.438-1.43-.489-2.548-.05-1.12-.063-1.478-.063-4.329s.012-3.209.063-4.329c.051-1.117.229-1.88.488-2.548.264-.7.677-1.335 1.211-1.86a5.145 5.145 0 011.86-1.21c.668-.26 1.43-.438 2.548-.489zm8.572 1.89c-1.107-.05-1.44-.061-4.243-.061-2.803 0-3.135.01-4.242.06-1.024.048-1.58.219-1.95.362a3.25 3.25 0 00-1.207.786 3.253 3.253 0 00-.786 1.207c-.143.37-.315.926-.361 1.95-.05 1.107-.061 1.439-.061 4.242 0 2.804.01 3.136.06 4.243.047 1.023.219 1.58.362 1.95.169.455.437.868.786 1.206a3.25 3.25 0 001.207.786c.37.144.926.315 1.95.361 1.106.05 1.438.062 4.242.062 2.804 0 3.136-.011 4.243-.062 1.023-.046 1.58-.217 1.95-.361a3.477 3.477 0 001.992-1.993c.143-.37.315-.926.361-1.95.05-1.107.061-1.438.061-4.242 0-2.803-.01-3.135-.06-4.242-.047-1.024-.219-1.58-.362-1.95a3.255 3.255 0 00-.786-1.207 3.254 3.254 0 00-1.207-.786c-.37-.143-.926-.314-1.95-.361zm2.621 2.942a1.26 1.26 0 11-2.52 0 1.26 1.26 0 012.52 0zM6.61 12a5.391 5.391 0 1110.782 0A5.391 5.391 0 016.61 12zM12 15.5a3.5 3.5 0 100-7 3.5 3.5 0 000 7z" clip-rule="evenodd"></path></svg>