<svg width="400" height="400" viewBox="0 0 400 400" fill="none" xmlns="http://www.w3.org/2000/svg">
<g clip-path="url(#clip0_141_1104)">
<rect width="400" height="400" rx="12" fill="#FFCE00"/>
<path d="M105.866 143.954L57.1434 214.941C53.4906 220.261 57.2897 227.512 63.7294 227.512H156.467C162.907 227.512 166.706 220.265 163.053 214.941L114.331 143.954C112.29 140.981 107.91 140.981 105.87 143.954H105.866Z" fill="#00A4FF"/>
<path d="M108.976 195.654C107.375 195.654 105.835 195.172 104.523 194.26C103.245 193.372 102.263 192.133 101.693 190.685C101.401 189.944 101.763 189.106 102.502 188.812C103.241 188.519 104.076 188.882 104.369 189.623C105.123 191.535 106.928 192.766 108.976 192.766C111.024 192.766 112.829 191.531 113.584 189.623C113.876 188.882 114.711 188.519 115.45 188.812C116.189 189.106 116.551 189.944 116.259 190.685C115.689 192.133 114.707 193.372 113.43 194.26C112.117 195.172 110.577 195.654 108.976 195.654Z" fill="#141313"/>
<path d="M119.75 186.315C117.722 186.315 115.77 185.704 114.107 184.546C112.487 183.419 111.243 181.851 110.52 180.013C110.227 179.272 110.589 178.434 111.328 178.141C112.067 177.847 112.902 178.21 113.195 178.951C114.265 181.67 116.836 183.423 119.75 183.423C122.664 183.423 125.231 181.666 126.305 178.951C126.598 178.21 127.433 177.847 128.172 178.141C128.911 178.434 129.273 179.272 128.98 180.013C128.257 181.851 127.017 183.415 125.393 184.546C123.73 185.701 121.779 186.315 119.75 186.315Z" fill="#141313"/>
<path d="M98.2062 186.314C96.1777 186.314 94.2261 185.704 92.5633 184.546C90.9428 183.418 89.6995 181.851 88.9759 180.013C88.6833 179.272 89.0452 178.434 89.7842 178.14C90.5232 177.847 91.3585 178.21 91.651 178.951C92.7211 181.669 95.2924 183.422 98.2062 183.422C101.12 183.422 103.687 181.665 104.761 178.951C105.054 178.21 105.889 177.847 106.628 178.14C107.367 178.434 107.729 179.272 107.436 180.013C106.713 181.851 105.473 183.415 103.849 184.546C102.186 185.7 100.235 186.314 98.2062 186.314Z" fill="#141313"/>
<path d="M319.349 227.478H79.4375C70.3265 227.478 62.9361 234.887 62.9361 244.031V399.517H136.459V373.717C136.459 338.852 164.635 310.592 199.389 310.592C234.147 310.592 262.319 338.856 262.319 373.717V399.517H335.842V244.031C335.842 234.891 328.456 227.478 319.341 227.478H319.349Z" fill="#FF7300"/>
<path d="M288.363 94.4775H225.163C217.784 94.4775 211.803 100.478 211.803 107.879V171.275C211.803 178.677 217.784 184.677 225.163 184.677H288.363C295.741 184.677 301.723 178.677 301.723 171.275V107.879C301.723 100.478 295.741 94.4775 288.363 94.4775Z" fill="#F9F4F2"/>
<path d="M148.746 184.33H327.867V227.586H148.746C137.318 227.586 128.037 218.276 128.037 206.813V205.102C128.037 193.639 137.318 184.33 148.746 184.33Z" fill="#FFB700"/>
<path d="M151.533 193.925H327.801V217.987H151.533C145.174 217.987 140.012 212.809 140.012 206.431V205.481C140.012 199.103 145.174 193.925 151.533 193.925Z" fill="white"/>
<path d="M192.992 241.424L181.283 231.733L170.012 241.297C168.096 242.926 165.155 241.556 165.155 239.038V201.45H197.823V239.138C197.823 241.64 194.917 243.015 192.992 241.424Z" fill="#FF9900"/>
<path d="M141.894 104.972L143.364 102.277C143.834 101.416 145.066 101.416 145.535 102.277L147.006 104.972C149 108.629 151.998 111.637 155.643 113.637L158.33 115.112C159.188 115.583 159.188 116.818 158.33 117.289L155.643 118.764C151.998 120.764 149 123.772 147.006 127.429L145.535 130.124C145.066 130.985 143.838 130.985 143.364 130.124L141.894 127.429C139.9 123.772 136.902 120.764 133.257 118.764L130.57 117.289C129.711 116.818 129.711 115.587 130.57 115.112L133.257 113.637C136.902 111.637 139.9 108.629 141.894 104.972Z" fill="#F9F4F2"/>
<path d="M335.846 250.219V243.871C335.846 234.732 328.46 227.319 319.345 227.319H272.735" fill="#141313"/>
<path d="M210.613 159.371H210.629C211.337 159.329 211.891 158.75 211.899 158.039L211.911 156.73V126.784H211.884C180.213 126.784 154.539 152.537 154.539 184.306H185.863C186.491 184.306 187.006 183.801 187.022 183.171C187.595 170.337 197.83 160.02 210.606 159.375H210.613V159.371Z" fill="#0061EF"/>
<path d="M210.613 159.371H210.629C211.337 159.329 211.891 158.75 211.899 158.039L211.911 156.73V138.186H211.884C186.491 138.186 165.909 158.835 165.909 184.303H185.863C186.491 184.303 187.007 183.797 187.022 183.167C187.595 170.333 197.83 160.016 210.606 159.371H210.613Z" fill="#FFCE00"/>
<path d="M210.606 159.372H210.629C211.337 159.329 211.891 158.75 211.899 158.04L211.91 156.731V148.418H211.884C192.126 148.418 176.109 164.484 176.109 184.303H185.863C186.491 184.303 187.006 183.797 187.022 183.168C187.595 170.333 197.83 160.016 210.606 159.372Z" fill="#FC5500"/>
<path d="M275.407 117.571C263.189 113.891 257.535 123.625 257.535 123.625C257.535 123.625 252.335 113.633 239.971 116.721C227.608 119.814 222.338 134.255 230.698 147.711C237.142 158.043 247.623 164.267 253.051 166.951C255.21 168.024 257.735 168.086 259.944 167.121C265.46 164.688 276.269 159.031 283.193 148.958C292.185 135.923 287.682 121.266 275.41 117.579L275.407 117.571Z" fill="#FFA500"/>
<path d="M294.002 63.8826L250.714 214.018C248.778 220.729 253.736 227.447 260.695 227.551L335.408 228.69C342.371 228.798 347.525 222.234 345.796 215.466L307.085 64.0834C305.369 57.3728 295.919 57.2299 294.002 63.8826Z" fill="#0061EF"/>
<path d="M299.553 143.716C299.648 137.417 294.635 132.234 288.356 132.138C282.077 132.043 276.91 137.071 276.815 143.37C276.719 149.668 281.732 154.852 288.011 154.947C294.29 155.043 299.457 150.014 299.553 143.716Z" fill="#FAF6F4"/>
<path d="M299.553 143.716C299.648 137.417 294.635 132.234 288.356 132.138C282.077 132.043 276.91 137.071 276.815 143.37C276.719 149.668 281.732 154.852 288.011 154.947C294.29 155.043 299.457 150.014 299.553 143.716Z" fill="white"/>
<mask id="mask0_141_1104" style="mask-type:luminance" maskUnits="userSpaceOnUse" x="276" y="132" width="24" height="23">
<path d="M299.553 143.716C299.648 137.417 294.635 132.234 288.356 132.138C282.077 132.043 276.91 137.071 276.815 143.37C276.719 149.668 281.732 154.852 288.011 154.947C294.29 155.043 299.457 150.014 299.553 143.716Z" fill="white"/>
</mask>
<g mask="url(#mask0_141_1104)">
<path d="M288.189 149.707C291.582 149.707 294.332 146.948 294.332 143.545C294.332 140.142 291.582 137.383 288.189 137.383C284.796 137.383 282.046 140.142 282.046 143.545C282.046 146.948 284.796 149.707 288.189 149.707Z" fill="#141313"/>
</g>
<path d="M309.206 155.271C315.486 155.271 320.576 150.164 320.576 143.865C320.576 137.566 315.486 132.459 309.206 132.459C302.926 132.459 297.835 137.566 297.835 143.865C297.835 150.164 302.926 155.271 309.206 155.271Z" fill="#FAF6F4"/>
<path d="M309.206 155.271C315.486 155.271 320.576 150.164 320.576 143.865C320.576 137.566 315.486 132.459 309.206 132.459C302.926 132.459 297.835 137.566 297.835 143.865C297.835 150.164 302.926 155.271 309.206 155.271Z" fill="white"/>
<mask id="mask1_141_1104" style="mask-type:luminance" maskUnits="userSpaceOnUse" x="297" y="132" width="24" height="24">
<path d="M309.206 155.271C315.486 155.271 320.576 150.164 320.576 143.865C320.576 137.566 315.486 132.459 309.206 132.459C302.926 132.459 297.835 137.566 297.835 143.865C297.835 150.164 302.926 155.271 309.206 155.271Z" fill="white"/>
</mask>
<g mask="url(#mask1_141_1104)">
<path d="M309.206 150.028C312.599 150.028 315.349 147.269 315.349 143.865C315.349 140.462 312.599 137.703 309.206 137.703C305.813 137.703 303.062 140.462 303.062 143.865C303.062 147.269 305.813 150.028 309.206 150.028Z" fill="#141313"/>
</g>
<path d="M182.926 268.521C176.791 268.521 171.287 264.625 169.231 258.826C168.688 257.297 169.485 255.621 171.009 255.077C172.534 254.532 174.204 255.332 174.747 256.861C175.975 260.324 179.262 262.652 182.93 262.652C186.599 262.652 189.886 260.324 191.114 256.861C191.656 255.332 193.327 254.536 194.851 255.077C196.375 255.621 197.168 257.297 196.63 258.826C194.574 264.625 189.07 268.521 182.934 268.521H182.926Z" fill="#141313"/>
<path d="M215.733 268.521C209.597 268.521 204.093 264.625 202.038 258.826C201.495 257.297 202.292 255.621 203.816 255.077C205.34 254.532 207.011 255.332 207.553 256.861C208.781 260.324 212.069 262.652 215.737 262.652C219.405 262.652 222.692 260.324 223.92 256.861C224.463 255.332 226.133 254.536 227.658 255.077C229.182 255.621 229.975 257.297 229.436 258.826C227.381 264.625 221.876 268.521 215.741 268.521H215.733Z" fill="#141313"/>
<path d="M199.393 289.166C179.97 289.166 161.402 281.907 147.106 268.729C145.917 267.633 145.84 265.776 146.933 264.583C148.026 263.39 149.878 263.312 151.067 264.409C164.277 276.587 181.441 283.297 199.393 283.297C217.346 283.297 234.509 276.591 247.72 264.409C248.909 263.312 250.761 263.39 251.854 264.583C252.947 265.776 252.87 267.633 251.68 268.729C237.389 281.907 218.816 289.166 199.393 289.166Z" fill="#141313"/>
<path d="M220.258 384.746V385.314C220.258 386.329 220.731 387.233 221.439 387.584L238.228 395.959L238.213 374.077L221.431 382.473C220.723 382.828 220.254 383.732 220.254 384.746H220.258Z" fill="#FC5500"/>
<path d="M236.034 397.139L236.017 372.877C236.016 371.516 237.117 370.41 238.475 370.409L311.173 370.358C313.723 370.356 315.798 372.431 315.8 374.992L315.814 394.913C315.816 397.47 313.747 399.552 311.194 399.554L238.495 399.604C237.138 399.605 236.035 398.501 236.034 397.139Z" fill="#FC5500"/>
<path d="M243.064 370.409L243.084 399.604L306.925 399.56L306.905 370.364L243.064 370.409Z" fill="#E2DED9"/>
<path d="M282.235 345.157C280.811 345.16 279.721 344.492 278.886 343.407C277.958 342.199 277.112 340.925 276.18 339.72C274.956 338.141 273.505 336.79 271.892 335.608C270.911 334.894 269.875 334.272 268.782 333.759C267.812 333.299 266.823 332.89 265.834 332.473C265.164 332.191 264.471 331.967 263.805 331.674C262.735 331.206 262.015 330.369 261.603 329.303C261.18 328.206 261.257 327.11 261.796 326.036C262.227 325.187 262.912 324.623 263.655 324.083C264.925 323.16 266.211 322.26 267.419 321.26C268.921 320.017 270.21 318.565 271.257 316.913C271.784 316.075 272.3 315.225 272.747 314.341C273.139 313.561 273.424 312.731 273.759 311.92C274.032 311.264 274.302 310.607 274.575 309.951C274.66 309.742 274.741 309.53 274.844 309.333C275.272 308.511 275.957 308.001 276.854 307.847C277.242 307.781 277.67 307.885 278.066 307.963C278.798 308.102 279.329 308.584 279.675 309.194C280.041 309.835 280.218 310.561 279.945 311.306C279.606 312.225 279.221 313.125 278.89 314.044C278.324 315.619 277.616 317.129 276.777 318.577C276.084 319.774 275.276 320.886 274.413 321.971C273.432 323.202 272.358 324.345 271.172 325.368C270.345 326.083 269.429 326.697 268.551 327.357C268.509 327.392 268.436 327.461 268.443 327.473C268.478 327.531 268.528 327.596 268.586 327.623C269.063 327.828 269.548 328.009 270.021 328.222C270.614 328.484 271.211 328.735 271.781 329.044C272.466 329.415 273.124 329.832 273.794 330.233C274.09 330.411 274.375 330.604 274.664 330.789C274.779 330.863 274.864 330.851 274.933 330.724C275.426 329.801 275.926 328.882 276.415 327.955C276.804 327.222 277.2 326.492 277.55 325.739C277.993 324.789 278.401 323.82 278.817 322.859C279.094 322.218 279.363 321.577 279.617 320.928C279.821 320.403 280.002 319.87 280.187 319.341C280.364 318.828 280.549 318.318 280.711 317.801C280.892 317.21 281.045 316.608 281.223 316.017C281.53 314.982 282.139 314.198 283.213 313.924C283.651 313.812 284.14 313.87 284.606 313.889C284.937 313.901 285.268 313.963 285.595 314.024C286.107 314.117 286.5 314.434 286.881 314.762C287.431 315.241 287.947 315.77 288.544 316.187C289.606 316.932 290.695 317.646 291.858 318.241C292.986 318.82 294.175 319.237 295.341 319.723C296.119 320.048 296.943 320.272 297.651 320.758C298.575 321.391 299.148 322.249 299.383 323.353C299.56 324.187 299.487 325.002 299.194 325.782C298.936 326.469 298.494 327.056 297.901 327.5C297.216 328.017 296.515 328.515 295.811 329.006C293.859 330.369 292.066 331.905 290.591 333.789C289.552 335.118 288.667 336.539 287.951 338.064C287.639 338.732 287.343 339.407 287.066 340.087C286.727 340.925 286.438 341.782 286.092 342.616C285.545 343.925 284.525 344.705 283.182 345.072C282.878 345.153 282.543 345.133 282.223 345.16L282.235 345.157ZM281.188 331.658C280.464 332.604 279.744 333.55 279.021 334.492C279.433 334.967 279.845 335.438 280.253 335.905C280.645 334.55 281.038 333.203 281.43 331.859C281.477 331.697 281.519 331.531 281.565 331.369C281.534 331.357 281.504 331.342 281.473 331.33C281.377 331.438 281.284 331.55 281.188 331.658ZM290.014 326.079C290.461 325.592 290.919 325.133 291.407 324.727C291.534 324.619 291.496 324.546 291.396 324.492C290.911 324.214 290.422 323.94 289.933 323.677C289.891 323.654 289.791 323.712 289.768 323.766C289.656 324.075 289.556 324.392 289.46 324.712C289.21 325.554 288.967 326.395 288.725 327.237C288.698 327.326 288.69 327.426 288.675 327.523C288.694 327.538 288.709 327.558 288.728 327.573C288.89 327.376 289.052 327.179 289.213 326.986C289.475 326.677 289.737 326.372 290.01 326.075" fill="#FC5500"/>
<path d="M281.434 331.859C281.465 331.658 281.346 331.635 281.192 331.658C281.288 331.55 281.381 331.438 281.477 331.33C281.508 331.341 281.538 331.357 281.569 331.368C281.523 331.53 281.481 331.696 281.434 331.859Z" fill="#FC5500"/>
<path d="M159.489 137.603C161.259 137.603 162.695 136.163 162.695 134.386C162.695 132.61 161.259 131.17 159.489 131.17C157.718 131.17 156.282 132.61 156.282 134.386C156.282 136.163 157.718 137.603 159.489 137.603Z" fill="#FFB700"/>
</g>
<defs>
<clipPath id="clip0_141_1104">
<rect width="400" height="400" rx="12" fill="white"/>
</clipPath>
</defs>
</svg>
