<svg width="1em" height="1em" fill="none" viewBox="0 0 24 24" aria-hidden="true" class="css-zjik7" xmlns="http://www.w3.org/2000/svg"><path fill="currentColor" d="M20.449 2H3.496C2.665 2 2 2.667 2 3.444v17.112C2 21.333 2.665 22 3.496 22h17.008c.831 0 1.496-.667 1.496-1.444V3.444A1.57 1.57 0 0020.449 2zM7.928 19.056H4.936V9.5h2.937v9.556h.055zM6.432 8.166a1.728 1.728 0 01-1.717-1.722c0-.944.775-1.666 1.717-1.666.942 0 1.718.778 1.718 1.722s-.776 1.667-1.718 1.667zm12.576 10.89h-2.936v-4.667c0-1.111 0-2.556-1.551-2.556-1.552 0-1.773 1.223-1.773 2.445V19H9.756V9.5h2.826v1.278h.055c.388-.778 1.385-1.556 2.826-1.556 2.991 0 3.545 2 3.545 4.556v5.278z"></path></svg>