<svg xmlns="http://www.w3.org/2000/svg" xmlns:xlink="http://www.w3.org/1999/xlink" viewBox="0 0 1440 950" width="1440" height="950" preserveAspectRatio="xMidYMid meet" style="width: 100%; height: 100%; transform: translate3d(0px, 0px, 0px); content-visibility: visible;"><defs><clipPath id="__lottie_element_2375"><rect width="1440" height="950" x="0" y="0"></rect></clipPath></defs><g clip-path="url(#__lottie_element_2375)"><g transform="matrix(1,0,0,1,1160.136962890625,-1198)" opacity="1" style="display: block;"><g opacity="1" transform="matrix(1,0,0,1,0,0)"><path fill="rgb(255,126,29)" fill-opacity="1" d=" M508.1700134277344,201.2169952392578 C508.1700134277344,201.2169952392578 675.9240112304688,-124.30400085449219 675.9240112304688,-124.30400085449219 C675.9240112304688,-124.30400085449219 582.6069946289062,-791.7210083007812 381.8550109863281,-306.5249938964844 C183.86300659179688,172 -159.4510040283203,-99.56099700927734 -235,-68.5 C-310.54901123046875,-37.4379997253418 -144.21200561523438,497.45599365234375 223.44000244140625,493.4200134277344 C591.0910034179688,489.3840026855469 508.1700134277344,201.2169952392578 508.1700134277344,201.2169952392578z"></path></g></g><g transform="matrix(1,0,0,1,720,771.3619995117188)" opacity="1" style="display: block;"><g opacity="1" transform="matrix(1,0,0,1,0,0)"><path fill="rgb(255,126,29)" fill-opacity="1" d=" M92.7770004272461,-1.0779999494552612 C94.93599700927734,29.062999725341797 80.9469985961914,46.16600036621094 72.50399780273438,58.13100051879883 C59.375,71.9749984741211 42.74700164794922,90.8550033569336 0.5009999871253967,91.91000366210938 C-35.33599853515625,93.3219985961914 -52.965999603271484,77.55400085449219 -67.72899627685547,63.856998443603516 C-87.0009994506836,42.66600036621094 -92.03399658203125,30.118000030517578 -93,-1.0779999494552612 C-93.09300231933594,-20.197999954223633 -85.72699737548828,-39.30099868774414 -72.8290023803711,-56.09299850463867 C-54.74599838256836,-81.62100219726562 -26.034000396728516,-90.16200256347656 0.5009999871253967,-91.94300079345703 C28.34000015258789,-93.0250015258789 50.481998443603516,-78.97599792480469 65.61000061035156,-63.845001220703125 C84.9530029296875,-43.43299865722656 90.8949966430664,-25.906999588012695 92.7770004272461,-1.0779999494552612z"></path></g><g opacity="1" transform="matrix(1,0,0,1,0,0)"><g opacity="1" transform="matrix(1,0,0,1,0,0)"><path stroke-linecap="round" stroke-linejoin="round" fill-opacity="0" stroke="rgb(65,61,69)" stroke-opacity="1" stroke-width="6" d=" M-27.645999908447266,-54.770999908447266 C-27.645999908447266,-48.625999450683594 -22.666000366210938,-43.64699935913086 -16.527999877929688,-43.64699935913086 C-10.38599967956543,-43.64699935913086 -5.409999847412109,-48.63100051879883 -5.409999847412109,-54.770999908447266"></path></g><g opacity="1" transform="matrix(1,0,0,1,0,0)"><path stroke-linecap="round" stroke-linejoin="round" fill-opacity="0" stroke="rgb(65,61,69)" stroke-opacity="1" stroke-width="6" d=" M5.409999847412109,-54.770999908447266 C5.409999847412109,-48.625999450683594 10.390000343322754,-43.64699935913086 16.527999877929688,-43.64699935913086 C22.665000915527344,-43.64699935913086 27.645000457763672,-48.63100051879883 27.645000457763672,-54.770999908447266"></path></g><g opacity="1" transform="matrix(1,0,0,1,0,0)"><path stroke-linecap="round" stroke-linejoin="round" fill-opacity="0" stroke="rgb(65,61,69)" stroke-opacity="1" stroke-width="6" d=" M-49.20500183105469,-54.770999908447266 C-42.2130012512207,-34.305999755859375 -22.820999145507812,-19.593000411987305 0.0020000000949949026,-19.593000411987305 C22.825000762939453,-19.593000411987305 42.2130012512207,-34.305999755859375 49.20899963378906,-54.770999908447266"></path></g></g></g><g transform="matrix(1,0,0,1,720,-102)" opacity="1" style="display: block;"><g opacity="1" transform="matrix(1,0,0,1,0,0)"><path fill="rgb(255,126,29)" fill-opacity="1" d=" M738,612 C322,612 329,964 -16,964 C-285,964 -462,668 -734,668 C-734,788 -734,1044 -734,1044 C-734,1044 738,1044 738,1044 C738,1044 738,864 738,612z"></path></g></g><g transform="matrix(1,0,0,1,720,-102)" opacity="1" style="display: block;"><g opacity="1" transform="matrix(1,0,0,1,0,0)"><path fill="rgb(65,61,69)" fill-opacity="1" d=" M738,732 C358,732 270,988 -16,988 C-240,988 -462,776 -734,776 C-734,896 -734,1084 -734,1084 C-734,1084 738,1084 738,1084 C738,1084 738,984 738,732z"></path></g></g></g></svg>