<svg width="1em" height="1em" fill="none" viewBox="0 0 24 24" data-testid="story-quote" class="css-14tgia0">
<path fill="currentColor" fill-rule="evenodd" d="M4.49 7.529a5.3 5.3 0 011.174-.131c3.128 0 5.663 2.716 5.663 6.065 0 3.35-2.535 6.066-5.663 6.066S0 16.814 0 13.463c0-.098.002-.197.007-.295H0C0 8.113 3.84 4 8.56 4v2.036c-1.531 0-2.943.558-4.07 1.493zm12.674 0c.378-.086.77-.131 1.172-.131 3.128 0 5.664 2.716 5.664 6.065 0 3.35-2.536 6.066-5.664 6.066-3.128 0-5.663-2.715-5.663-6.066 0-.098.002-.197.007-.295h-.007c0-5.055 3.84-9.168 8.56-9.168v2.036c-1.532 0-2.943.558-4.07 1.493z" clip-rule="evenodd"></path>
</svg>