<svg xmlns="http://www.w3.org/2000/svg" xmlns:xlink="http://www.w3.org/1999/xlink" viewBox="0 0 150 50" width="150" height="50" preserveAspectRatio="xMidYMid meet" style="width: 100%; height: 100%; transform: translate3d(0px, 0px, 0px); content-visibility: visible;"><defs><clipPath id="__lottie_element_3181"><rect width="150" height="50" x="0" y="0"></rect></clipPath><g id="__lottie_element_3182"><g transform="matrix(1,0,0,1,70,25)" opacity="1" style="display: block;"><path fill="rgb(255,0,0)" fill-opacity="1" d=" M54,-11 C54,-11 54,11 54,11 C54,11 -52,11 -52,11 C-52,11 -52,-11 -52,-11 C-52,-11 54,-11 54,-11z"></path></g></g><mask id="__lottie_element_3182_1" mask-type="alpha"><use xlink:href="#__lottie_element_3182"></use></mask></defs><g clip-path="url(#__lottie_element_3181)"><g transform="matrix(1,0,0,1,80.5,25)" opacity="1" style="display: block;"><g opacity="1" transform="matrix(1,0,0,1,0,0)"><g opacity="1" transform="matrix(1,0,0,1,0,0)"><path fill="rgb(255,126,29)" fill-opacity="1" d=" M21.636999130249023,-5.938000202178955 C21.636999130249023,-5.938000202178955 23.23900032043457,-2.7330000400543213 23.23900032043457,-2.7330000400543213 C23.23900032043457,-2.7330000400543213 23.430999755859375,-2.3499999046325684 23.430999755859375,-2.3499999046325684 C23.430999755859375,-2.3499999046325684 23.856000900268555,-2.296999931335449 23.856000900268555,-2.296999931335449 C23.856000900268555,-2.296999931335449 26.979999542236328,-1.906999945640564 26.979999542236328,-1.906999945640564 C26.979999542236328,-1.906999945640564 24.81100082397461,0.5260000228881836 24.81100082397461,0.5260000228881836 C24.81100082397461,0.5260000228881836 24.55500030517578,0.8130000233650208 24.55500030517578,0.8130000233650208 C24.55500030517578,0.8130000233650208 24.618999481201172,1.1920000314712524 24.618999481201172,1.1920000314712524 C24.618999481201172,1.1920000314712524 25.222000122070312,4.76200008392334 25.222000122070312,4.76200008392334 C25.222000122070312,4.76200008392334 21.993999481201172,3.1480000019073486 21.993999481201172,3.1480000019073486 C21.993999481201172,3.1480000019073486 21.636999130249023,2.9690001010894775 21.636999130249023,2.9690001010894775 C21.636999130249023,2.9690001010894775 21.27899932861328,3.1480000019073486 21.27899932861328,3.1480000019073486 C21.27899932861328,3.1480000019073486 18.054000854492188,4.760000228881836 18.054000854492188,4.760000228881836 C18.054000854492188,4.760000228881836 18.66200065612793,1.1929999589920044 18.66200065612793,1.1929999589920044 C18.66200065612793,1.1929999589920044 18.726999282836914,0.8130000233650208 18.726999282836914,0.8130000233650208 C18.726999282836914,0.8130000233650208 18.469999313354492,0.5249999761581421 18.469999313354492,0.5249999761581421 C18.469999313354492,0.5249999761581421 16.29599952697754,-1.906999945640564 16.29599952697754,-1.906999945640564 C16.29599952697754,-1.906999945640564 19.417999267578125,-2.296999931335449 19.417999267578125,-2.296999931335449 C19.417999267578125,-2.296999931335449 19.843000411987305,-2.3499999046325684 19.843000411987305,-2.3499999046325684 C19.843000411987305,-2.3499999046325684 20.034000396728516,-2.7330000400543213 20.034000396728516,-2.7330000400543213 C20.034000396728516,-2.7330000400543213 21.636999130249023,-5.938000202178955 21.636999130249023,-5.938000202178955 M21.636999130249023,-7.7270002365112305 C21.636999130249023,-7.7270002365112305 19.31800079345703,-3.0910000801086426 19.31800079345703,-3.0910000801086426 C19.31800079345703,-3.0910000801086426 14.682000160217285,-2.510999917984009 14.682000160217285,-2.510999917984009 C14.682000160217285,-2.510999917984009 17.87299919128418,1.059000015258789 17.87299919128418,1.059000015258789 C17.87299919128418,1.059000015258789 17,6.182000160217285 17,6.182000160217285 C17,6.182000160217285 21.636999130249023,3.864000082015991 21.636999130249023,3.864000082015991 C21.636999130249023,3.864000082015991 26.273000717163086,6.182000160217285 26.273000717163086,6.182000160217285 C26.273000717163086,6.182000160217285 25.408000946044922,1.059000015258789 25.408000946044922,1.059000015258789 C25.408000946044922,1.059000015258789 28.590999603271484,-2.510999917984009 28.590999603271484,-2.510999917984009 C28.590999603271484,-2.510999917984009 23.954999923706055,-3.0910000801086426 23.954999923706055,-3.0910000801086426 C23.954999923706055,-3.0910000801086426 21.636999130249023,-7.7270002365112305 21.636999130249023,-7.7270002365112305 C21.636999130249023,-7.7270002365112305 21.636999130249023,-7.7270002365112305 21.636999130249023,-7.7270002365112305z"></path></g><g opacity="1" transform="matrix(1,0,0,1,0,0)"><path fill="rgb(255,126,29)" fill-opacity="1" d=" M0.0010000000474974513,-5.938000202178955 C0.0010000000474974513,-5.938000202178955 1.6030000448226929,-2.7330000400543213 1.6030000448226929,-2.7330000400543213 C1.6030000448226929,-2.7330000400543213 1.7949999570846558,-2.3499999046325684 1.7949999570846558,-2.3499999046325684 C1.7949999570846558,-2.3499999046325684 2.2190001010894775,-2.296999931335449 2.2190001010894775,-2.296999931335449 C2.2190001010894775,-2.296999931335449 5.343999862670898,-1.906999945640564 5.343999862670898,-1.906999945640564 C5.343999862670898,-1.906999945640564 3.1740000247955322,0.5260000228881836 3.1740000247955322,0.5260000228881836 C3.1740000247955322,0.5260000228881836 2.9189999103546143,0.8130000233650208 2.9189999103546143,0.8130000233650208 C2.9189999103546143,0.8130000233650208 2.9830000400543213,1.1920000314712524 2.9830000400543213,1.1920000314712524 C2.9830000400543213,1.1920000314712524 3.5859999656677246,4.76200008392334 3.5859999656677246,4.76200008392334 C3.5859999656677246,4.76200008392334 0.3580000102519989,3.1480000019073486 0.3580000102519989,3.1480000019073486 C0.3580000102519989,3.1480000019073486 0.0010000000474974513,2.9690001010894775 0.0010000000474974513,2.9690001010894775 C0.0010000000474974513,2.9690001010894775 -0.3569999933242798,3.1480000019073486 -0.3569999933242798,3.1480000019073486 C-0.3569999933242798,3.1480000019073486 -3.5820000171661377,4.760000228881836 -3.5820000171661377,4.760000228881836 C-3.5820000171661377,4.760000228881836 -2.9739999771118164,1.1929999589920044 -2.9739999771118164,1.1929999589920044 C-2.9739999771118164,1.1929999589920044 -2.9089999198913574,0.8130000233650208 -2.9089999198913574,0.8130000233650208 C-2.9089999198913574,0.8130000233650208 -3.1659998893737793,0.5249999761581421 -3.1659998893737793,0.5249999761581421 C-3.1659998893737793,0.5249999761581421 -5.341000080108643,-1.906999945640564 -5.341000080108643,-1.906999945640564 C-5.341000080108643,-1.906999945640564 -2.2179999351501465,-2.296999931335449 -2.2179999351501465,-2.296999931335449 C-2.2179999351501465,-2.296999931335449 -1.7940000295639038,-2.3499999046325684 -1.7940000295639038,-2.3499999046325684 C-1.7940000295639038,-2.3499999046325684 -1.6019999980926514,-2.7330000400543213 -1.6019999980926514,-2.7330000400543213 C-1.6019999980926514,-2.7330000400543213 0.0010000000474974513,-5.938000202178955 0.0010000000474974513,-5.938000202178955 M0.0010000000474974513,-7.7270002365112305 C0.0010000000474974513,-7.7270002365112305 -2.318000078201294,-3.0910000801086426 -2.318000078201294,-3.0910000801086426 C-2.318000078201294,-3.0910000801086426 -6.953999996185303,-2.510999917984009 -6.953999996185303,-2.510999917984009 C-6.953999996185303,-2.510999917984009 -3.763000011444092,1.059000015258789 -3.763000011444092,1.059000015258789 C-3.763000011444092,1.059000015258789 -4.636000156402588,6.182000160217285 -4.636000156402588,6.182000160217285 C-4.636000156402588,6.182000160217285 0.0010000000474974513,3.864000082015991 0.0010000000474974513,3.864000082015991 C0.0010000000474974513,3.864000082015991 4.63700008392334,6.182000160217285 4.63700008392334,6.182000160217285 C4.63700008392334,6.182000160217285 3.7709999084472656,1.059000015258789 3.7709999084472656,1.059000015258789 C3.7709999084472656,1.059000015258789 6.954999923706055,-2.510999917984009 6.954999923706055,-2.510999917984009 C6.954999923706055,-2.510999917984009 2.319000005722046,-3.0910000801086426 2.319000005722046,-3.0910000801086426 C2.319000005722046,-3.0910000801086426 0.0010000000474974513,-7.7270002365112305 0.0010000000474974513,-7.7270002365112305 C0.0010000000474974513,-7.7270002365112305 0.0010000000474974513,-7.7270002365112305 0.0010000000474974513,-7.7270002365112305z"></path></g><g opacity="1" transform="matrix(1,0,0,1,0,0)"><path fill="rgb(255,126,29)" fill-opacity="1" d=" M43.27299880981445,-5.938000202178955 C43.27299880981445,-5.938000202178955 44.875,-2.7330000400543213 44.875,-2.7330000400543213 C44.875,-2.7330000400543213 45.06700134277344,-2.3499999046325684 45.06700134277344,-2.3499999046325684 C45.06700134277344,-2.3499999046325684 45.492000579833984,-2.296999931335449 45.492000579833984,-2.296999931335449 C45.492000579833984,-2.296999931335449 48.61600112915039,-1.906999945640564 48.61600112915039,-1.906999945640564 C48.61600112915039,-1.906999945640564 46.446998596191406,0.5260000228881836 46.446998596191406,0.5260000228881836 C46.446998596191406,0.5260000228881836 46.191001892089844,0.8130000233650208 46.191001892089844,0.8130000233650208 C46.191001892089844,0.8130000233650208 46.255001068115234,1.1920000314712524 46.255001068115234,1.1920000314712524 C46.255001068115234,1.1920000314712524 46.858001708984375,4.76200008392334 46.858001708984375,4.76200008392334 C46.858001708984375,4.76200008392334 43.630001068115234,3.1480000019073486 43.630001068115234,3.1480000019073486 C43.630001068115234,3.1480000019073486 43.27299880981445,2.9690001010894775 43.27299880981445,2.9690001010894775 C43.27299880981445,2.9690001010894775 42.915000915527344,3.1480000019073486 42.915000915527344,3.1480000019073486 C42.915000915527344,3.1480000019073486 39.689998626708984,4.760000228881836 39.689998626708984,4.760000228881836 C39.689998626708984,4.760000228881836 40.29800033569336,1.1929999589920044 40.29800033569336,1.1929999589920044 C40.29800033569336,1.1929999589920044 40.362998962402344,0.8130000233650208 40.362998962402344,0.8130000233650208 C40.362998962402344,0.8130000233650208 40.10599899291992,0.5249999761581421 40.10599899291992,0.5249999761581421 C40.10599899291992,0.5249999761581421 37.93199920654297,-1.906999945640564 37.93199920654297,-1.906999945640564 C37.93199920654297,-1.906999945640564 41.05400085449219,-2.296999931335449 41.05400085449219,-2.296999931335449 C41.05400085449219,-2.296999931335449 41.479000091552734,-2.3499999046325684 41.479000091552734,-2.3499999046325684 C41.479000091552734,-2.3499999046325684 41.66999816894531,-2.7330000400543213 41.66999816894531,-2.7330000400543213 C41.66999816894531,-2.7330000400543213 43.27299880981445,-5.938000202178955 43.27299880981445,-5.938000202178955 M43.27299880981445,-7.7270002365112305 C43.27299880981445,-7.7270002365112305 40.95399856567383,-3.0910000801086426 40.95399856567383,-3.0910000801086426 C40.95399856567383,-3.0910000801086426 36.31800079345703,-2.510999917984009 36.31800079345703,-2.510999917984009 C36.31800079345703,-2.510999917984009 39.50899887084961,1.059000015258789 39.50899887084961,1.059000015258789 C39.50899887084961,1.059000015258789 38.63600158691406,6.182000160217285 38.63600158691406,6.182000160217285 C38.63600158691406,6.182000160217285 43.27299880981445,3.864000082015991 43.27299880981445,3.864000082015991 C43.27299880981445,3.864000082015991 47.909000396728516,6.182000160217285 47.909000396728516,6.182000160217285 C47.909000396728516,6.182000160217285 47.04399871826172,1.059000015258789 47.04399871826172,1.059000015258789 C47.04399871826172,1.059000015258789 50.22700119018555,-2.510999917984009 50.22700119018555,-2.510999917984009 C50.22700119018555,-2.510999917984009 45.590999603271484,-3.0910000801086426 45.590999603271484,-3.0910000801086426 C45.590999603271484,-3.0910000801086426 43.27299880981445,-7.7270002365112305 43.27299880981445,-7.7270002365112305 C43.27299880981445,-7.7270002365112305 43.27299880981445,-7.7270002365112305 43.27299880981445,-7.7270002365112305z"></path></g><g opacity="1" transform="matrix(1,0,0,1,0,0)"><path fill="rgb(255,126,29)" fill-opacity="1" d=" M-21.63599967956543,-5.938000202178955 C-21.63599967956543,-5.938000202178955 -20.033000946044922,-2.7330000400543213 -20.033000946044922,-2.7330000400543213 C-20.033000946044922,-2.7330000400543213 -19.841999053955078,-2.3499999046325684 -19.841999053955078,-2.3499999046325684 C-19.841999053955078,-2.3499999046325684 -19.41699981689453,-2.296999931335449 -19.41699981689453,-2.296999931335449 C-19.41699981689453,-2.296999931335449 -16.29199981689453,-1.906999945640564 -16.29199981689453,-1.906999945640564 C-16.29199981689453,-1.906999945640564 -18.461999893188477,0.5260000228881836 -18.461999893188477,0.5260000228881836 C-18.461999893188477,0.5260000228881836 -18.718000411987305,0.8130000233650208 -18.718000411987305,0.8130000233650208 C-18.718000411987305,0.8130000233650208 -18.65399932861328,1.1920000314712524 -18.65399932861328,1.1920000314712524 C-18.65399932861328,1.1920000314712524 -18.051000595092773,4.76200008392334 -18.051000595092773,4.76200008392334 C-18.051000595092773,4.76200008392334 -21.277999877929688,3.1480000019073486 -21.277999877929688,3.1480000019073486 C-21.277999877929688,3.1480000019073486 -21.63599967956543,2.9690001010894775 -21.63599967956543,2.9690001010894775 C-21.63599967956543,2.9690001010894775 -21.993000030517578,3.1480000019073486 -21.993000030517578,3.1480000019073486 C-21.993000030517578,3.1480000019073486 -25.218000411987305,4.760000228881836 -25.218000411987305,4.760000228881836 C-25.218000411987305,4.760000228881836 -24.610000610351562,1.1929999589920044 -24.610000610351562,1.1929999589920044 C-24.610000610351562,1.1929999589920044 -24.545000076293945,0.8130000233650208 -24.545000076293945,0.8130000233650208 C-24.545000076293945,0.8130000233650208 -24.802000045776367,0.5249999761581421 -24.802000045776367,0.5249999761581421 C-24.802000045776367,0.5249999761581421 -26.976999282836914,-1.906999945640564 -26.976999282836914,-1.906999945640564 C-26.976999282836914,-1.906999945640564 -23.854999542236328,-2.296999931335449 -23.854999542236328,-2.296999931335449 C-23.854999542236328,-2.296999931335449 -23.43000030517578,-2.3499999046325684 -23.43000030517578,-2.3499999046325684 C-23.43000030517578,-2.3499999046325684 -23.238000869750977,-2.7330000400543213 -23.238000869750977,-2.7330000400543213 C-23.238000869750977,-2.7330000400543213 -21.63599967956543,-5.938000202178955 -21.63599967956543,-5.938000202178955 M-21.63599967956543,-7.7270002365112305 C-21.63599967956543,-7.7270002365112305 -23.95400047302246,-3.0910000801086426 -23.95400047302246,-3.0910000801086426 C-23.95400047302246,-3.0910000801086426 -28.59000015258789,-2.510999917984009 -28.59000015258789,-2.510999917984009 C-28.59000015258789,-2.510999917984009 -25.39900016784668,1.059000015258789 -25.39900016784668,1.059000015258789 C-25.39900016784668,1.059000015258789 -26.27199935913086,6.182000160217285 -26.27199935913086,6.182000160217285 C-26.27199935913086,6.182000160217285 -21.63599967956543,3.864000082015991 -21.63599967956543,3.864000082015991 C-21.63599967956543,3.864000082015991 -16.999000549316406,6.182000160217285 -16.999000549316406,6.182000160217285 C-16.999000549316406,6.182000160217285 -17.864999771118164,1.059000015258789 -17.864999771118164,1.059000015258789 C-17.864999771118164,1.059000015258789 -14.680999755859375,-2.510999917984009 -14.680999755859375,-2.510999917984009 C-14.680999755859375,-2.510999917984009 -19.31800079345703,-3.0910000801086426 -19.31800079345703,-3.0910000801086426 C-19.31800079345703,-3.0910000801086426 -21.63599967956543,-7.7270002365112305 -21.63599967956543,-7.7270002365112305 C-21.63599967956543,-7.7270002365112305 -21.63599967956543,-7.7270002365112305 -21.63599967956543,-7.7270002365112305z"></path></g><g opacity="1" transform="matrix(1,0,0,1,0,0)"><path fill="rgb(255,126,29)" fill-opacity="1" d=" M-43.27199935913086,-5.938000202178955 C-43.27199935913086,-5.938000202178955 -41.66899871826172,-2.7330000400543213 -41.66899871826172,-2.7330000400543213 C-41.66899871826172,-2.7330000400543213 -41.47800064086914,-2.3499999046325684 -41.47800064086914,-2.3499999046325684 C-41.47800064086914,-2.3499999046325684 -41.053001403808594,-2.296999931335449 -41.053001403808594,-2.296999931335449 C-41.053001403808594,-2.296999931335449 -37.92900085449219,-1.906999945640564 -37.92900085449219,-1.906999945640564 C-37.92900085449219,-1.906999945640564 -40.097999572753906,0.5260000228881836 -40.097999572753906,0.5260000228881836 C-40.097999572753906,0.5260000228881836 -40.354000091552734,0.8130000233650208 -40.354000091552734,0.8130000233650208 C-40.354000091552734,0.8130000233650208 -40.290000915527344,1.1920000314712524 -40.290000915527344,1.1920000314712524 C-40.290000915527344,1.1920000314712524 -39.6870002746582,4.76200008392334 -39.6870002746582,4.76200008392334 C-39.6870002746582,4.76200008392334 -42.91400146484375,3.1480000019073486 -42.91400146484375,3.1480000019073486 C-42.91400146484375,3.1480000019073486 -43.27199935913086,2.9690001010894775 -43.27199935913086,2.9690001010894775 C-43.27199935913086,2.9690001010894775 -43.630001068115234,3.1480000019073486 -43.630001068115234,3.1480000019073486 C-43.630001068115234,3.1480000019073486 -46.85499954223633,4.760000228881836 -46.85499954223633,4.760000228881836 C-46.85499954223633,4.760000228881836 -46.24599838256836,1.1929999589920044 -46.24599838256836,1.1929999589920044 C-46.24599838256836,1.1929999589920044 -46.18199920654297,0.8130000233650208 -46.18199920654297,0.8130000233650208 C-46.18199920654297,0.8130000233650208 -46.43899917602539,0.5249999761581421 -46.43899917602539,0.5249999761581421 C-46.43899917602539,0.5249999761581421 -48.612998962402344,-1.906999945640564 -48.612998962402344,-1.906999945640564 C-48.612998962402344,-1.906999945640564 -45.49100112915039,-2.296999931335449 -45.49100112915039,-2.296999931335449 C-45.49100112915039,-2.296999931335449 -45.066001892089844,-2.3499999046325684 -45.066001892089844,-2.3499999046325684 C-45.066001892089844,-2.3499999046325684 -44.875,-2.7330000400543213 -44.875,-2.7330000400543213 C-44.875,-2.7330000400543213 -43.27199935913086,-5.938000202178955 -43.27199935913086,-5.938000202178955 M-43.27199935913086,-7.7270002365112305 C-43.27199935913086,-7.7270002365112305 -45.59000015258789,-3.0910000801086426 -45.59000015258789,-3.0910000801086426 C-45.59000015258789,-3.0910000801086426 -50.22700119018555,-2.510999917984009 -50.22700119018555,-2.510999917984009 C-50.22700119018555,-2.510999917984009 -47.03499984741211,1.059000015258789 -47.03499984741211,1.059000015258789 C-47.03499984741211,1.059000015258789 -47.90800094604492,6.182000160217285 -47.90800094604492,6.182000160217285 C-47.90800094604492,6.182000160217285 -43.27199935913086,3.864000082015991 -43.27199935913086,3.864000082015991 C-43.27199935913086,3.864000082015991 -38.63600158691406,6.182000160217285 -38.63600158691406,6.182000160217285 C-38.63600158691406,6.182000160217285 -39.500999450683594,1.059000015258789 -39.500999450683594,1.059000015258789 C-39.500999450683594,1.059000015258789 -36.31700134277344,-2.510999917984009 -36.31700134277344,-2.510999917984009 C-36.31700134277344,-2.510999917984009 -40.95399856567383,-3.0910000801086426 -40.95399856567383,-3.0910000801086426 C-40.95399856567383,-3.0910000801086426 -43.27199935913086,-7.7270002365112305 -43.27199935913086,-7.7270002365112305 C-43.27199935913086,-7.7270002365112305 -43.27199935913086,-7.7270002365112305 -43.27199935913086,-7.7270002365112305z"></path></g></g></g><g mask="url(#__lottie_element_3182_1)" style="display: block;"><g transform="matrix(1,0,0,1,80.5,25)" opacity="1"><g opacity="1" transform="matrix(1,0,0,1,0,0)"><path fill="rgb(255,126,29)" fill-opacity="1" d=" M21.636999130249023,-7.7270002365112305 C21.636999130249023,-7.7270002365112305 19.31800079345703,-3.0910000801086426 19.31800079345703,-3.0910000801086426 C19.31800079345703,-3.0910000801086426 14.682000160217285,-2.510999917984009 14.682000160217285,-2.510999917984009 C14.682000160217285,-2.510999917984009 17.87299919128418,1.059000015258789 17.87299919128418,1.059000015258789 C17.87299919128418,1.059000015258789 17,6.182000160217285 17,6.182000160217285 C17,6.182000160217285 21.636999130249023,3.864000082015991 21.636999130249023,3.864000082015991 C21.636999130249023,3.864000082015991 26.273000717163086,6.182000160217285 26.273000717163086,6.182000160217285 C26.273000717163086,6.182000160217285 25.408000946044922,1.059000015258789 25.408000946044922,1.059000015258789 C25.408000946044922,1.059000015258789 28.590999603271484,-2.510999917984009 28.590999603271484,-2.510999917984009 C28.590999603271484,-2.510999917984009 23.954999923706055,-3.0910000801086426 23.954999923706055,-3.0910000801086426 C23.954999923706055,-3.0910000801086426 21.636999130249023,-7.7270002365112305 21.636999130249023,-7.7270002365112305 C21.636999130249023,-7.7270002365112305 21.636999130249023,-7.7270002365112305 21.636999130249023,-7.7270002365112305z M0.0010000000474974513,-7.7270002365112305 C0.0010000000474974513,-7.7270002365112305 -2.318000078201294,-3.0910000801086426 -2.318000078201294,-3.0910000801086426 C-2.318000078201294,-3.0910000801086426 -6.953999996185303,-2.510999917984009 -6.953999996185303,-2.510999917984009 C-6.953999996185303,-2.510999917984009 -3.763000011444092,1.059000015258789 -3.763000011444092,1.059000015258789 C-3.763000011444092,1.059000015258789 -4.636000156402588,6.182000160217285 -4.636000156402588,6.182000160217285 C-4.636000156402588,6.182000160217285 0.0010000000474974513,3.864000082015991 0.0010000000474974513,3.864000082015991 C0.0010000000474974513,3.864000082015991 4.63700008392334,6.182000160217285 4.63700008392334,6.182000160217285 C4.63700008392334,6.182000160217285 3.7709999084472656,1.059000015258789 3.7709999084472656,1.059000015258789 C3.7709999084472656,1.059000015258789 6.954999923706055,-2.510999917984009 6.954999923706055,-2.510999917984009 C6.954999923706055,-2.510999917984009 2.319000005722046,-3.0910000801086426 2.319000005722046,-3.0910000801086426 C2.319000005722046,-3.0910000801086426 0.0010000000474974513,-7.7270002365112305 0.0010000000474974513,-7.7270002365112305 C0.0010000000474974513,-7.7270002365112305 0.0010000000474974513,-7.7270002365112305 0.0010000000474974513,-7.7270002365112305z M43.27299880981445,-7.7270002365112305 C43.27299880981445,-7.7270002365112305 40.95399856567383,-3.0910000801086426 40.95399856567383,-3.0910000801086426 C40.95399856567383,-3.0910000801086426 36.31800079345703,-2.510999917984009 36.31800079345703,-2.510999917984009 C36.31800079345703,-2.510999917984009 39.50899887084961,1.059000015258789 39.50899887084961,1.059000015258789 C39.50899887084961,1.059000015258789 38.63600158691406,6.182000160217285 38.63600158691406,6.182000160217285 C38.63600158691406,6.182000160217285 43.27299880981445,3.864000082015991 43.27299880981445,3.864000082015991 C43.27299880981445,3.864000082015991 47.909000396728516,6.182000160217285 47.909000396728516,6.182000160217285 C47.909000396728516,6.182000160217285 47.04399871826172,1.059000015258789 47.04399871826172,1.059000015258789 C47.04399871826172,1.059000015258789 50.22700119018555,-2.510999917984009 50.22700119018555,-2.510999917984009 C50.22700119018555,-2.510999917984009 45.590999603271484,-3.0910000801086426 45.590999603271484,-3.0910000801086426 C45.590999603271484,-3.0910000801086426 43.27299880981445,-7.7270002365112305 43.27299880981445,-7.7270002365112305 C43.27299880981445,-7.7270002365112305 43.27299880981445,-7.7270002365112305 43.27299880981445,-7.7270002365112305z M-21.63599967956543,-7.7270002365112305 C-21.63599967956543,-7.7270002365112305 -23.95400047302246,-3.0910000801086426 -23.95400047302246,-3.0910000801086426 C-23.95400047302246,-3.0910000801086426 -28.59000015258789,-2.510999917984009 -28.59000015258789,-2.510999917984009 C-28.59000015258789,-2.510999917984009 -25.39900016784668,1.059000015258789 -25.39900016784668,1.059000015258789 C-25.39900016784668,1.059000015258789 -26.27199935913086,6.182000160217285 -26.27199935913086,6.182000160217285 C-26.27199935913086,6.182000160217285 -21.63599967956543,3.864000082015991 -21.63599967956543,3.864000082015991 C-21.63599967956543,3.864000082015991 -16.999000549316406,6.182000160217285 -16.999000549316406,6.182000160217285 C-16.999000549316406,6.182000160217285 -17.864999771118164,1.059000015258789 -17.864999771118164,1.059000015258789 C-17.864999771118164,1.059000015258789 -14.680999755859375,-2.510999917984009 -14.680999755859375,-2.510999917984009 C-14.680999755859375,-2.510999917984009 -19.31800079345703,-3.0910000801086426 -19.31800079345703,-3.0910000801086426 C-19.31800079345703,-3.0910000801086426 -21.63599967956543,-7.7270002365112305 -21.63599967956543,-7.7270002365112305 C-21.63599967956543,-7.7270002365112305 -21.63599967956543,-7.7270002365112305 -21.63599967956543,-7.7270002365112305z M-43.27199935913086,-7.7270002365112305 C-43.27199935913086,-7.7270002365112305 -45.59000015258789,-3.0910000801086426 -45.59000015258789,-3.0910000801086426 C-45.59000015258789,-3.0910000801086426 -50.22700119018555,-2.510999917984009 -50.22700119018555,-2.510999917984009 C-50.22700119018555,-2.510999917984009 -47.03499984741211,1.059000015258789 -47.03499984741211,1.059000015258789 C-47.03499984741211,1.059000015258789 -47.90800094604492,6.182000160217285 -47.90800094604492,6.182000160217285 C-47.90800094604492,6.182000160217285 -43.27199935913086,3.864000082015991 -43.27199935913086,3.864000082015991 C-43.27199935913086,3.864000082015991 -38.63600158691406,6.182000160217285 -38.63600158691406,6.182000160217285 C-38.63600158691406,6.182000160217285 -39.500999450683594,1.059000015258789 -39.500999450683594,1.059000015258789 C-39.500999450683594,1.059000015258789 -36.31700134277344,-2.510999917984009 -36.31700134277344,-2.510999917984009 C-36.31700134277344,-2.510999917984009 -40.95399856567383,-3.0910000801086426 -40.95399856567383,-3.0910000801086426 C-40.95399856567383,-3.0910000801086426 -43.27199935913086,-7.7270002365112305 -43.27199935913086,-7.7270002365112305 C-43.27199935913086,-7.7270002365112305 -43.27199935913086,-7.7270002365112305 -43.27199935913086,-7.7270002365112305z"></path></g></g></g></g></svg>