<svg width="1em" height="1em" fill="none" viewBox="0 0 24 24" aria-hidden="true" class="css-zjik7" xmlns="http://www.w3.org/2000/svg"><path fill="currentColor" fill-rule="evenodd" d="M8.068 20.714c8.004 0 12.381-6.63 12.381-12.381 0-.188-.004-.376-.012-.563a8.853 8.853 0 002.17-2.253 8.68 8.68 0 01-2.498.685 4.367 4.367 0 001.913-2.407 8.72 8.72 0 01-2.763 1.057 4.352 4.352 0 00-7.415 3.968 12.356 12.356 0 01-8.97-4.547 4.34 4.34 0 00-.59 2.188c0 1.51.769 2.842 1.937 3.622a4.32 4.32 0 01-1.971-.544v.055c0 2.107 1.5 3.867 3.49 4.266a4.356 4.356 0 01-1.965.074 4.356 4.356 0 004.065 3.023 8.73 8.73 0 01-5.404 1.863 8.89 8.89 0 01-1.038-.06 12.317 12.317 0 006.67 1.954" clip-rule="evenodd"></path></svg>