<svg width="1.5rem" height="1.5rem" fill="currentColor" viewBox="0 0 24 24" class="css-rkk3mp" xmlns="http://www.w3.org/2000/svg"><path fill="currentColor" fill-rule="evenodd" d="M12 4a8 8 0 100 16 8 8 0 000-16zM2 12C2 6.477 6.477 2 12 2s10 4.477 10 10-4.477 10-10 10S2 17.523 2 12z" clip-rule="evenodd"></path><path fill="currentColor" fill-rule="evenodd" d="M10.636 5.976C10.096 7.47 9.742 9.6 9.742 12s.354 4.53.894 6.024c.272.75.573 1.288.856 1.618.286.335.461.358.508.358.047 0 .222-.023.508-.358.283-.33.584-.867.855-1.618.541-1.494.895-3.624.895-6.024s-.354-4.53-.895-6.024c-.271-.75-.572-1.288-.855-1.619C12.222 4.024 12.047 4 12 4c-.047 0-.222.023-.508.357-.284.331-.584.868-.856 1.62zm-.664-2.919C10.466 2.48 11.147 2 12 2s1.534.48 2.028 1.057c.496.58.898 1.361 1.216 2.239.639 1.763 1.014 4.134 1.014 6.704 0 2.57-.375 4.94-1.014 6.704-.318.878-.72 1.659-1.216 2.239C13.534 21.519 12.853 22 12 22s-1.534-.48-2.028-1.057c-.496-.58-.898-1.36-1.216-2.239C8.117 16.941 7.742 14.57 7.742 12c0-2.57.375-4.94 1.014-6.704.318-.878.72-1.659 1.216-2.239z" clip-rule="evenodd"></path><path fill="currentColor" fill-rule="evenodd" d="M2.576 9.12a1 1 0 011-1h16.812a1 1 0 110 2H3.576a1 1 0 01-1-1zm0 5.76a1 1 0 011-1h16.812a1 1 0 110 2H3.576a1 1 0 01-1-1z" clip-rule="evenodd"></path></svg>