
<svg width="1em" height="1em" fill="currentColor" viewBox="0 0 24 24" aria-hidden="true" class="css-zjik7" xmlns="http://www.w3.org/2000/svg"><path fill="currentColor" fill-rule="evenodd" d="M21.84 5.432c.484.637.799 1.386.915 2.177a33.31 33.31 0 01.22 3.557v1.665a33.24 33.24 0 01-.138 3.54 4.746 4.746 0 01-.914 2.176 3.137 3.137 0 01-2.195.914c-3.11.229-7.682.229-7.682.229s-5.707-.055-7.463-.22a3.722 3.722 0 01-2.423-.914 4.747 4.747 0 01-.915-2.177 33.19 33.19 0 01-.22-3.548v-1.665a33.188 33.188 0 01.184-3.575c.116-.791.43-1.54.914-2.177a3.137 3.137 0 012.195-.915C7.428 4.28 12 4.28 12 4.28s4.573 0 7.646.238a3.137 3.137 0 012.195.914zM9.733 8.68v6.164l5.926-3.073L9.732 8.68z" clip-rule="evenodd"></path></svg>